{
    "asset" : {
        "generator" : "Khronos glTF Blender I/O v1.0.5",
        "version" : "2.0"
    },
    "scene" : 0,
    "scenes" : [
        {
            "name" : "Scene",
            "nodes" : [
                0,
                1,
                3
            ]
        }
    ],
    "nodes" : [
        {
            "name" : "Light",
            "rotation" : [
                0.16907575726509094,
                0.7558803558349609,
                -0.27217137813568115,
                0.570947527885437
            ],
            "scale" : [
                -28.856639862060547,
                -28.856637954711914,
                -28.856643676757812
            ],
            "translation" : [
                1.713258981704712,
                1.063849925994873,
                -0.046107202768325806
            ]
        },
        {
            "name" : "Camera",
            "rotation" : [
                0.2292722761631012,
                -0.7680428624153137,
                0.45784491300582886,
                0.38460680842399597
            ],
            "translation" : [
                -0.2294875681400299,
                0.15496273338794708,
                -0.17167846858501434
            ]
        },
        {
            "mesh" : 0,
            "name" : "icing"
        },
        {
            "children" : [
                2
            ],
            "mesh" : 1,
            "name" : "donut",
            "translation" : [
                0.014045238494873047,
                -0.0004010051488876343,
                0.014495566487312317
            ]
        }
    ],
    "materials" : [
        {
            "doubleSided" : true,
            "name" : "Material.001",
            "pbrMetallicRoughness" : {
                "baseColorFactor" : [
                    0.8000000715255737,
                    0.41773736476898193,
                    0.6037399172782898,
                    1
                ],
                "metallicFactor" : 0,
                "roughnessFactor" : 0.3470587730407715
            }
        },
        {
            "doubleSided" : true,
            "name" : "Material",
            "pbrMetallicRoughness" : {
                "baseColorFactor" : [
                    0.8000000715255737,
                    0.5174831748008728,
                    0.27847665548324585,
                    1
                ],
                "metallicFactor" : 0,
                "roughnessFactor" : 0.5
            }
        }
    ],
    "meshes" : [
        {
            "name" : "Torus.001",
            "primitives" : [
                {
                    "attributes" : {
                        "POSITION" : 0,
                        "NORMAL" : 1,
                        "TEXCOORD_0" : 2
                    },
                    "indices" : 3,
                    "material" : 0
                }
            ]
        },
        {
            "name" : "Torus",
            "primitives" : [
                {
                    "attributes" : {
                        "POSITION" : 4,
                        "NORMAL" : 5,
                        "TEXCOORD_0" : 6
                    },
                    "indices" : 7,
                    "material" : 1
                }
            ]
        }
    ],
    "accessors" : [
        {
            "bufferView" : 0,
            "componentType" : 5126,
            "count" : 5255,
            "max" : [
                0.07631206512451172,
                0.03121994063258171,
                0.07717160880565643
            ],
            "min" : [
                -0.07606968283653259,
                0.004501833580434322,
                -0.07617363333702087
            ],
            "type" : "VEC3"
        },
        {
            "bufferView" : 1,
            "componentType" : 5126,
            "count" : 5255,
            "type" : "VEC3"
        },
        {
            "bufferView" : 2,
            "componentType" : 5126,
            "count" : 5255,
            "type" : "VEC2"
        },
        {
            "bufferView" : 3,
            "componentType" : 5123,
            "count" : 29568,
            "type" : "SCALAR"
        },
        {
            "bufferView" : 4,
            "componentType" : 5126,
            "count" : 1653,
            "max" : [
                0.07351673394441605,
                0.026625409722328186,
                0.07282260060310364
            ],
            "min" : [
                -0.07363401353359222,
                -0.0241845715790987,
                -0.07314241677522659
            ],
            "type" : "VEC3"
        },
        {
            "bufferView" : 5,
            "componentType" : 5126,
            "count" : 1653,
            "type" : "VEC3"
        },
        {
            "bufferView" : 6,
            "componentType" : 5126,
            "count" : 1653,
            "type" : "VEC2"
        },
        {
            "bufferView" : 7,
            "componentType" : 5123,
            "count" : 9408,
            "type" : "SCALAR"
        }
    ],
    "bufferViews" : [
        {
            "buffer" : 0,
            "byteLength" : 63060,
            "byteOffset" : 0
        },
        {
            "buffer" : 0,
            "byteLength" : 63060,
            "byteOffset" : 63060
        },
        {
            "buffer" : 0,
            "byteLength" : 42040,
            "byteOffset" : 126120
        },
        {
            "buffer" : 0,
            "byteLength" : 59136,
            "byteOffset" : 168160
        },
        {
            "buffer" : 0,
            "byteLength" : 19836,
            "byteOffset" : 227296
        },
        {
            "buffer" : 0,
            "byteLength" : 19836,
            "byteOffset" : 247132
        },
        {
            "buffer" : 0,
            "byteLength" : 13224,
            "byteOffset" : 266968
        },
        {
            "buffer" : 0,
            "byteLength" : 18816,
            "byteOffset" : 280192
        }
    ],
    "buffers" : [
        {
            "byteLength" : 299008,
            "uri" : "data:application/octet-stream;base64,"
        }
    ]
}
